
	<svg xmlns="http://www.w3.org/2000/svg" xmlns:xlink="http://www.w3.org/1999/xlink" version="1.1" width="512" height="512" viewBox="0 0 100 100">


		<defs>
			<g id="background">
<path fill="url(#background-gradient)" stroke="none" d=" M 100 18.4 Q 100 10.8 94.6 5.4 89.05 0 81.6 0 L 18.4 0 Q 10.8 0 5.4 5.4 0 10.8 0 18.4 L 0 81.6 Q 0 89.05 5.4 94.6 10.8 100 18.4 100 L 81.6 100 Q 89.05 100 94.6 94.6 100 89.05 100 81.6 L 100 18.4 Z"/>
</g><g id="middle-1">
<path fill="#000000" fill-opacity="0.4" stroke="none" d=" M 100 75.4 Q 99.8 82.4 94.6 87.75 89.2 93.15 81.6 93.15 L 18.4 93.15 Q 10.8 93.15 5.4 87.75 0.2 82.5 0 75.4 L 0 81.65 Q 0 89.2 5.4 94.6 10.8 100 18.4 100 L 81.6 100 Q 89.2 100 94.6 94.6 100 89.1 100 81.65 L 100 75.4 Z"/>
</g><mask id="mask">
<path fill="#FFFFFF" stroke="none" d=" M 100 18.4 Q 100 10.8 94.6 5.4 89.05 0 81.6 0 L 18.4 0 Q 10.8 0 5.4 5.4 0 10.8 0 18.4 L 0 75.4 Q 0.2 82.5 5.4 87.75 10.8 93.15 18.4 93.15 L 81.6 93.15 Q 89.2 93.15 94.6 87.75 99.8 82.4 100 75.4 L 100 18.4 Z"/>
</mask>
			
	<linearGradient id="background-gradient" x1="0" y1="0" y2="1" x2="0" >
		<stop stop-color="#76B59B" offset="0%"/>
		<stop stop-color="#76B59B" offset="100%"/>
	</linearGradient>

			
			
			<g transform="scale(3.125) translate(0 1.5000001192092896)" id="picture"><path d="M29 5h-4.9l-.9.4.9-.4-1.9-3.9c-.3-.7-1-1.1-1.8-1.1h-8.8c-.7 0-1.4.4-1.8 1.1L7.9 5H7V3.5c0-.3-.2-.5-.5-.5h-3c-.3 0-.5.2-.5.5V5C1.3 5 0 6.3 0 8v18c0 1.7 1.3 3 3 3h26c1.7 0 3-1.3 3-3V8c0-1.7-1.3-3-3-3zM4 4h2v1H4V4zM3 7h4.9c.8 0 1.4-.4 1.8-1.1L11.6 2h8.8l1.9 3.9c.3.7 1 1.1 1.8 1.1H29c.6 0 1 .4 1 1v6h-6.6c-1.2-2.9-4.1-5-7.4-5s-6.2 2.1-7.4 5H2V8c0-.6.4-1 1-1zm13 3c3.9 0 7 3.1 7 7s-3.1 7-7 7-7-3.1-7-7 3.1-7 7-7zm13 17H3c-.6 0-1-.4-1-1V15h6.3c-.2.6-.3 1.3-.3 2 0 4.4 3.6 8 8 8s8-3.6 8-8c0-.7-.1-1.4-.3-2H30v11c0 .6-.4 1-1 1z M16 23c3.3 0 6-2.7 6-6s-2.7-6-6-6-6 2.7-6 6 2.7 6 6 6zm0-11c2.8 0 5 2.2 5 5s-2.2 5-5 5-5-2.2-5-5 2.2-5 5-5z M13 16.5c0-1.4 1.1-2.5 2.5-2.5.3 0 .5-.2.5-.5s-.2-.5-.5-.5c-1.9 0-3.5 1.6-3.5 3.5 0 .3.2.5.5.5s.5-.2.5-.5zM27 12c1.1 0 2-.9 2-2s-.9-2-2-2-2 .9-2 2 .9 2 2 2zm0-3c.6 0 1 .4 1 1s-.4 1-1 1-1-.4-1-1 .4-1 1-1z"/></g>
			
	<linearGradient id="picture-gradient" x1="0" y1="0" y2="1" x2="0" >
		<stop stop-color="#ffffff" offset="0%"/>
		<stop stop-color="#e5eff9" offset="100%"/>
	</linearGradient>

		</defs>

		

			<use xlink:href="#background" fill="url(#background-gradient)" />

		<use xlink:href="#middle-1" />

			<g mask="url(#mask)">
				<g transform="
				        translate(
                                50 45
)
                            translate(0 0)  scale(0.65)  
                            translate(
                                -50 -45
)">
						<use xlink:href="#picture" fill="url(#picture-gradient)"  />
				</g>
			</g>

		



	</svg>
